<svg width="14" height="12" viewBox="0 0 14 12" fill="none" xmlns="http://www.w3.org/2000/svg">
<path fill-rule="evenodd" clip-rule="evenodd" d="M1.24688 10.6862C0.899495 10.2882 0.965942 9.70408 1.39529 9.3815L6.99506 5.17419L12.6445 9.31457C13.0776 9.63202 13.151 10.2153 12.8084 10.6174C12.4658 11.0195 11.8369 11.0881 11.4037 10.7706L7.00919 7.54993L2.65328 10.8227C2.22393 11.1453 1.59426 11.0842 1.24688 10.6862ZM1.22204 6.51212C0.874661 6.11414 0.941109 5.53001 1.37046 5.20743L6.97022 1.00013L12.6196 5.1405C13.0528 5.45796 13.1262 6.04125 12.7836 6.44333C12.441 6.84541 11.8121 6.91401 11.3789 6.59656L6.98436 3.37586L2.62845 6.64862C2.19909 6.9712 1.56943 6.91009 1.22204 6.51212Z" fill="#710707"/>
</svg>
