<svg width="24" height="24" viewBox="0 0 24 24" fill="none" xmlns="http://www.w3.org/2000/svg">
<path d="M2 11.9998C2 11.1348 2.11 10.2968 2.316 9.49582C2.86847 9.52486 3.4182 9.40057 3.90444 9.13668C4.39068 8.8728 4.79448 8.47961 5.07121 8.00056C5.34793 7.52152 5.48681 6.97528 5.47247 6.42224C5.45814 5.8692 5.29117 5.33089 4.99 4.86682C6.19894 3.67739 7.69079 2.81531 9.325 2.36182C9.57599 2.85529 9.95864 3.26968 10.4306 3.55913C10.9025 3.84857 11.4454 4.00177 11.999 4.00177C12.5526 4.00177 13.0955 3.84857 13.5674 3.55913C14.0394 3.26968 14.422 2.85529 14.673 2.36182C16.3072 2.81531 17.7991 3.67739 19.008 4.86682C18.7065 5.33097 18.5393 5.86949 18.5248 6.42278C18.5104 6.97608 18.6493 7.52258 18.9262 8.00183C19.2031 8.48108 19.6071 8.87438 20.0937 9.13823C20.5802 9.40208 21.1303 9.52619 21.683 9.49682C21.889 10.2968 21.999 11.1348 21.999 11.9998C21.999 12.8648 21.889 13.7028 21.683 14.5038C21.1305 14.4746 20.5806 14.5987 20.0942 14.8625C19.6078 15.1263 19.2039 15.5195 18.927 15.9986C18.6502 16.4777 18.5112 17.024 18.5255 17.5771C18.5398 18.1303 18.7068 18.6687 19.008 19.1328C17.7991 20.3222 16.3072 21.1843 14.673 21.6378C14.422 21.1443 14.0394 20.7299 13.5674 20.4405C13.0955 20.1511 12.5526 19.9979 11.999 19.9979C11.4454 19.9979 10.9025 20.1511 10.4306 20.4405C9.95864 20.7299 9.57599 21.1443 9.325 21.6378C7.69079 21.1843 6.19894 20.3222 4.99 19.1328C5.29151 18.6687 5.45873 18.1301 5.47317 17.5769C5.48761 17.0236 5.3487 16.4771 5.07181 15.9978C4.79492 15.5186 4.39085 15.1252 3.90431 14.8614C3.41776 14.5976 2.8677 14.4734 2.315 14.5028C2.11 13.7038 2 12.8658 2 11.9998ZM6.804 14.9998C7.434 16.0908 7.614 17.3458 7.368 18.5238C7.776 18.8138 8.21 19.0648 8.665 19.2738C9.58167 18.4527 10.7693 17.999 12 17.9998C13.26 17.9998 14.438 18.4708 15.335 19.2738C15.79 19.0648 16.224 18.8138 16.632 18.5238C16.3794 17.3198 16.5803 16.0649 17.196 14.9998C17.8106 13.9342 18.797 13.133 19.966 12.7498C20.0122 12.2509 20.0122 11.7487 19.966 11.2498C18.7966 10.8669 17.8099 10.0656 17.195 8.99982C16.5793 7.93475 16.3784 6.67985 16.631 5.47582C16.2231 5.18574 15.7889 4.93464 15.334 4.72582C14.4176 5.54675 13.2303 6.00043 12 5.99982C10.7693 6.00067 9.58167 5.54698 8.665 4.72582C8.21013 4.93464 7.77589 5.18574 7.368 5.47582C7.62056 6.67985 7.41972 7.93475 6.804 8.99982C6.18937 10.0654 5.20298 10.8667 4.034 11.2498C3.98775 11.7487 3.98775 12.2509 4.034 12.7498C5.20335 13.1328 6.19013 13.934 6.805 14.9998H6.804ZM12 14.9998C11.2044 14.9998 10.4413 14.6837 9.87868 14.1211C9.31607 13.5585 9 12.7955 9 11.9998C9 11.2042 9.31607 10.4411 9.87868 9.8785C10.4413 9.31589 11.2044 8.99982 12 8.99982C12.7956 8.99982 13.5587 9.31589 14.1213 9.8785C14.6839 10.4411 15 11.2042 15 11.9998C15 12.7955 14.6839 13.5585 14.1213 14.1211C13.5587 14.6837 12.7956 14.9998 12 14.9998ZM12 12.9998C12.2652 12.9998 12.5196 12.8945 12.7071 12.7069C12.8946 12.5194 13 12.265 13 11.9998C13 11.7346 12.8946 11.4802 12.7071 11.2927C12.5196 11.1052 12.2652 10.9998 12 10.9998C11.7348 10.9998 11.4804 11.1052 11.2929 11.2927C11.1054 11.4802 11 11.7346 11 11.9998C11 12.265 11.1054 12.5194 11.2929 12.7069C11.4804 12.8945 11.7348 12.9998 12 12.9998Z" fill="white"/>
</svg>
